<svg xmlns="http://www.w3.org/2000/svg" viewBox="0 0 32 32" width="32" height="32">
  <defs>
    <linearGradient id="jetGradient" x1="0%" y1="0%" x2="100%" y2="100%">
      <stop offset="0%" style="stop-color:#00f0ff;stop-opacity:1" />
      <stop offset="100%" style="stop-color:#a855f7;stop-opacity:1" />
    </linearGradient>
  </defs>
  
  <!-- Main fuselage body -->
  <path d="M3 16L27 16" stroke="url(#jetGradient)" stroke-width="2" stroke-linecap="round"/>
  
  <!-- Main wings - swept back delta style -->
  <path d="M8 10L18 16L8 22Z" fill="url(#jetGradient)" stroke="url(#jetGradient)" stroke-width="1"/>
  
  <!-- Tail vertical stabilizer -->
  <path d="M5 14L5 18L3 16Z" fill="url(#jetGradient)" stroke="url(#jetGradient)" stroke-width="1"/>
  
  <!-- Horizontal stabilizers -->
  <path d="M6 15L10 15" stroke="url(#jetGradient)" stroke-width="1"/>
  <path d="M6 17L10 17" stroke="url(#jetGradient)" stroke-width="1"/>
  
  <!-- Nose cone - pointed -->
  <path d="M27 16L30 14L30 18Z" fill="url(#jetGradient)" stroke="url(#jetGradient)" stroke-width="1"/>
  
  <!-- Cockpit canopy -->
  <path d="M19 15L24 15L24 17L19 17Z" fill="rgba(255,255,255,0.3)" stroke="url(#jetGradient)" stroke-width="0.5" rx="1"/>
  
  <!-- Engine intakes -->
  <circle cx="12" cy="13" r="1" fill="none" stroke="url(#jetGradient)" stroke-width="0.5"/>
  <circle cx="12" cy="19" r="1" fill="none" stroke="url(#jetGradient)" stroke-width="0.5"/>
  
  <!-- Afterburner exhaust -->
  <path d="M3 15L1 14L1 18L3 17" fill="#ff6b35" stroke="#ff6b35" stroke-width="1"/>
  <path d="M2.5 15.5L0.5 14.5L0.5 17.5L2.5 16.5" fill="#00f0ff" stroke="#00f0ff" stroke-width="0.5" opacity="0.7"/>
</svg>